<svg xmlns="http://www.w3.org/2000/svg" viewBox="0 0 800 520" role="img" aria-label="电动汽车和储能">
  <defs>
    <linearGradient id="aev" x1="0" y1="0" x2="1" y2="1">
      <stop offset="0" stop-color="#0d1211"/><stop offset="0.55" stop-color="#13201a"/><stop offset="1" stop-color="#1b2c22"/>
    </linearGradient>
  </defs>
  <rect width="800" height="520" fill="url(#aev)"/>
  <circle cx="400" cy="250" r="195" fill="#ffffff" opacity="0.06"/>
  <!-- EV car -->
  <path d="M250 300 q14 -64 70 -64 h90 q40 0 64 40 l50 8 q34 6 34 36 v18 q0 12 -14 12 H236 q-14 0 -14 -12 v-22 q0 -50 28 -54 z" fill="#eaf6ff"/>
  <path d="M300 240 h96 l30 38 H286 z" fill="#5ec6e8"/>
  <circle cx="310" cy="358" r="34" fill="#16324f"/><circle cx="310" cy="358" r="13" fill="#9fb6c6"/>
  <circle cx="486" cy="358" r="34" fill="#16324f"/><circle cx="486" cy="358" r="13" fill="#9fb6c6"/>
  <!-- battery / storage -->
  <rect x="560" y="300" width="92" height="120" rx="12" fill="#eaf6ff"/>
  <rect x="588" y="290" width="36" height="14" rx="5" fill="#eaf6ff"/>
  <path d="M612 322 l-22 40 h18 l-8 34 30 -48 h-18 z" fill="#c6f24e"/>
</svg>
