<svg xmlns="http://www.w3.org/2000/svg" viewBox="0 0 800 520" role="img" aria-label="液冷数据中心">
  <defs>
    <linearGradient id="adc" x1="0" y1="0" x2="1" y2="1">
      <stop offset="0" stop-color="#0d1211"/><stop offset="0.55" stop-color="#13201a"/><stop offset="1" stop-color="#1b2c22"/>
    </linearGradient>
  </defs>
  <rect width="800" height="520" fill="url(#adc)"/>
  <circle cx="400" cy="260" r="195" fill="#ffffff" opacity="0.06"/>
  <!-- racks -->
  <g>
    <rect x="296" y="150" width="92" height="240" rx="12" fill="#eaf6ff"/>
    <rect x="412" y="150" width="92" height="240" rx="12" fill="#eaf6ff"/>
    <g stroke="#16324f" stroke-width="5">
      <line x1="312" y1="186" x2="372" y2="186"/><line x1="312" y1="218" x2="372" y2="218"/><line x1="312" y1="250" x2="372" y2="250"/><line x1="312" y1="318" x2="372" y2="318"/><line x1="312" y1="350" x2="372" y2="350"/>
      <line x1="428" y1="186" x2="488" y2="186"/><line x1="428" y1="218" x2="488" y2="218"/><line x1="428" y1="250" x2="488" y2="250"/><line x1="428" y1="318" x2="488" y2="318"/><line x1="428" y1="350" x2="488" y2="350"/>
    </g>
    <circle cx="372" cy="284" r="6" fill="#c6f24e"/><circle cx="488" cy="284" r="6" fill="#c6f24e"/>
  </g>
  <!-- coolant loop -->
  <path d="M250 410 H550" fill="none" stroke="#5ec6e8" stroke-width="10" stroke-linecap="round"/>
  <path d="M250 410 V300" fill="none" stroke="#5ec6e8" stroke-width="10" stroke-linecap="round"/>
  <path d="M550 410 V300" fill="none" stroke="#5ec6e8" stroke-width="10" stroke-linecap="round"/>
  <path d="M400 96 c16 22 26 34 26 48 a26 26 0 0 1 -52 0 c0 -14 10 -26 26 -48 z" fill="#5ec6e8"/>
</svg>
