<svg xmlns="http://www.w3.org/2000/svg" viewBox="0 0 800 520" role="img" aria-label="MEMS 在线传感器">
  <defs>
    <linearGradient id="bg2" x1="0" y1="0" x2="1" y2="1">
      <stop offset="0" stop-color="#0d1211"/>
      <stop offset="0.55" stop-color="#13201a"/>
      <stop offset="1" stop-color="#1b2c22"/>
    </linearGradient>
  </defs>
  <rect width="800" height="520" fill="url(#bg2)"/>
  <g stroke="#ffffff" stroke-width="2" opacity="0.08" fill="none">
    <path d="M0 130 H260 M0 390 H260 M540 130 H800 M540 390 H800"/>
  </g>
  <circle cx="400" cy="260" r="190" fill="#ffffff" opacity="0.06"/>
  <!-- pins -->
  <g fill="#9fb6c6">
    <rect x="300" y="150" width="18" height="34" rx="4"/><rect x="346" y="150" width="18" height="34" rx="4"/><rect x="392" y="150" width="18" height="34" rx="4"/><rect x="438" y="150" width="18" height="34" rx="4"/><rect x="484" y="150" width="18" height="34" rx="4"/>
    <rect x="300" y="336" width="18" height="34" rx="4"/><rect x="346" y="336" width="18" height="34" rx="4"/><rect x="392" y="336" width="18" height="34" rx="4"/><rect x="438" y="336" width="18" height="34" rx="4"/><rect x="484" y="336" width="18" height="34" rx="4"/>
    <rect x="266" y="200" width="34" height="18" rx="4"/><rect x="266" y="246" width="34" height="18" rx="4"/><rect x="266" y="292" width="34" height="18" rx="4"/>
    <rect x="502" y="200" width="34" height="18" rx="4"/><rect x="502" y="246" width="34" height="18" rx="4"/><rect x="502" y="292" width="34" height="18" rx="4"/>
  </g>
  <!-- chip body -->
  <rect x="300" y="170" width="200" height="180" rx="20" fill="#eaf6ff"/>
  <rect x="300" y="170" width="200" height="180" rx="20" fill="none" stroke="#c6f24e" stroke-width="4" opacity="0.6"/>
  <!-- inner core -->
  <rect x="338" y="208" width="124" height="104" rx="12" fill="none" stroke="#16324f" stroke-width="6"/>
  <circle cx="400" cy="260" r="22" fill="#c6f24e"/>
  <!-- signal arcs -->
  <g fill="none" stroke="#5ec6e8" stroke-width="6" stroke-linecap="round">
    <path d="M438 230 a40 40 0 0 1 0 60"/>
    <path d="M456 218 a62 62 0 0 1 0 84"/>
  </g>
</svg>
